<svg width="31" height="31" viewBox="0 0 31 31" fill="none" xmlns="http://www.w3.org/2000/svg">
<g clip-path="url(#clip0_2765_7958)">
<path d="M15.22 0.969971C23.0907 0.969971 29.47 7.35046 29.47 15.22C29.47 23.0908 23.0908 29.47 15.22 29.47C7.35048 29.47 0.969971 23.0901 0.969971 15.22C0.969971 7.3505 7.3505 0.969971 15.22 0.969971Z" fill="#F5AC37" stroke="#627EEA" stroke-width="1.5"/>
<path d="M15.7727 16.2791H21.4725C21.594 16.2791 21.6514 16.2791 21.6601 16.1198C21.7067 15.5399 21.7067 14.9567 21.6601 14.3762C21.6601 14.2635 21.6041 14.2169 21.4819 14.2169H10.1384C9.99803 14.2169 9.96023 14.2635 9.96023 14.3951V16.0637C9.96023 16.2791 9.96023 16.2791 10.185 16.2791H15.7727ZM21.0236 12.2668C21.0398 12.2243 21.0398 12.1777 21.0236 12.1359C20.9284 11.9286 20.8157 11.7309 20.6847 11.5452C20.4876 11.228 20.2554 10.9357 19.9908 10.6731C19.866 10.5145 19.7215 10.3721 19.5595 10.2512C18.7481 9.56072 17.7836 9.07201 16.7468 8.82631C16.2236 8.70886 15.689 8.65283 15.1531 8.65756H10.1189C9.97846 8.65756 9.95956 8.71358 9.95956 8.83576V12.1635C9.95956 12.3039 9.95956 12.3417 10.1378 12.3417H20.9561C20.9561 12.3417 21.0499 12.3228 21.0688 12.2668H21.0229H21.0236ZM21.0236 18.2292C20.8643 18.2116 20.7036 18.2116 20.5443 18.2292H10.1479C10.0075 18.2292 9.96023 18.2292 9.96023 18.4168V21.6703C9.96023 21.8202 9.96023 21.858 10.1479 21.858H14.9479C15.1774 21.8755 15.4069 21.8593 15.6316 21.8114C16.3282 21.7615 17.0134 21.6103 17.6668 21.3612C17.9044 21.2788 18.1339 21.1715 18.3506 21.0426H18.416C19.5413 20.4573 20.4552 19.538 21.0317 18.4094C21.0317 18.4094 21.0972 18.2676 21.0236 18.2305V18.2292ZM8.07629 23.5448V23.4888V21.3045V20.564V18.3608C8.07629 18.2386 8.07629 18.2204 7.92644 18.2204H5.89197C5.77924 18.2204 5.73267 18.2204 5.73267 18.0705V16.2892H7.90754C8.02904 16.2892 8.07629 16.2892 8.07629 16.1299V14.3674C8.07629 14.2547 8.07629 14.227 7.92644 14.227H5.89197C5.77924 14.227 5.73267 14.227 5.73267 14.0772V12.4275C5.73267 12.3242 5.73267 12.2965 5.88252 12.2965H7.89809C8.03849 12.2965 8.07629 12.2965 8.07629 12.1183V7.06522C8.07629 6.91536 8.07629 6.87756 8.26394 6.87756H15.2948C15.8051 6.89781 16.312 6.95384 16.8136 7.04632C17.847 7.23734 18.8399 7.60657 19.7478 8.13375C20.3499 8.48813 20.9041 8.91608 21.3975 9.40884C21.7688 9.79427 22.1036 10.2114 22.4006 10.6556C22.6956 11.1058 22.9406 11.5871 23.133 12.09C23.1566 12.2209 23.2822 12.3093 23.4131 12.2871H25.0912C25.3065 12.2871 25.3065 12.2871 25.316 12.4936V14.0313C25.316 14.1811 25.2599 14.2189 25.1094 14.2189H23.8154C23.6845 14.2189 23.6467 14.2189 23.6561 14.3877C23.7074 14.9587 23.7074 15.5318 23.6561 16.1029C23.6561 16.2622 23.6561 16.2811 23.835 16.2811H25.3153C25.3808 16.3655 25.3153 16.4498 25.3153 16.5349C25.3247 16.6436 25.3247 16.7536 25.3153 16.8623V17.9969C25.3153 18.1562 25.2687 18.2035 25.1276 18.2035H23.3557C23.2322 18.1799 23.1121 18.2589 23.0837 18.3817C22.6618 19.4786 21.9868 20.4621 21.1147 21.2505C20.7961 21.5374 20.4613 21.8074 20.1117 22.0564C19.7364 22.2724 19.3712 22.4972 18.9864 22.6754C18.2783 22.994 17.5358 23.2289 16.7738 23.3781C16.0501 23.5077 15.3164 23.5664 14.58 23.5563H8.07359V23.5469L8.07629 23.5448Z" fill="#FEFEFD"/>
</g>
<defs>
<clipPath id="clip0_2765_7958">
<rect width="30" height="30" fill="white" transform="translate(0.219971 0.219971)"/>
</clipPath>
</defs>
</svg>
