<?xml version="1.0" encoding="UTF-8"?> <svg xmlns="http://www.w3.org/2000/svg" width="117" height="35" viewBox="0 0 117 35" fill="none"> <path d="M18 14C18 15.6569 16.6569 17 15 17C13.3431 17 12 15.6569 12 14C12 12.3431 13.3431 11 15 11C16.6569 11 18 12.3431 18 14Z" fill="#FF4700"></path> <path d="M32.6032 29C31.2993 29 30.5427 27.4686 31.3037 26.3699L34.4054 21.8915L31.7213 17.863C30.9147 16.6525 31.7496 15 33.1677 15V15C33.7645 15 34.3205 15.314 34.6445 15.8341L35.5279 17.2519L36.5993 19.0698H36.8034L37.9003 17.2519L38.8567 15.7443C39.1514 15.2797 39.6515 15 40.1875 15V15C41.4834 15 42.2372 16.5199 41.4843 17.6144L38.6911 21.6744L41.6797 26.1211C42.4956 27.3351 41.6586 29 40.2324 29V29C39.6368 29 39.0814 28.6882 38.7555 28.1709L37.6197 26.3682L36.4718 24.4961H36.2677L35.1452 26.3682L33.9364 28.2578C33.6398 28.7214 33.1393 29 32.6032 29V29Z" fill="#FF4700"></path> <path d="M59.9933 26.6263H59.8775C59.7384 26.9277 59.5761 27.2216 59.3907 27.508C59.2053 27.7943 58.9658 28.0505 58.6722 28.2766C58.394 28.4876 58.0541 28.6609 57.6523 28.7965C57.2505 28.9322 56.7715 29 56.2152 29C54.4536 29 53.1402 28.3067 52.2748 26.9202C51.4249 25.5337 51 23.5443 51 20.9521C51 18.2394 51.4713 16.1822 52.4139 14.7806C53.3565 13.379 54.809 12.6782 56.7715 12.6782C57.5287 12.6782 58.1854 12.7762 58.7417 12.9721C59.298 13.168 59.7693 13.4317 60.1556 13.7633C60.5574 14.0949 60.8896 14.4716 61.1523 14.8936C61.415 15.3005 61.6313 15.715 61.8013 16.137L60.1324 16.883C59.9933 16.5363 59.8311 16.2123 59.6457 15.9109C59.4757 15.5944 59.2594 15.3231 58.9967 15.0971C58.7494 14.8559 58.4481 14.6676 58.0927 14.5319C57.7373 14.3963 57.3201 14.3285 56.841 14.3285C55.543 14.3285 54.585 14.8032 53.9669 15.7527C53.3642 16.7021 53.0629 17.9681 53.0629 19.5505V21.992C53.0629 22.7908 53.1247 23.5217 53.2483 24.1848C53.372 24.8329 53.5728 25.3981 53.851 25.8803C54.1446 26.3626 54.5154 26.7394 54.9636 27.0106C55.4271 27.2668 55.9912 27.3949 56.6556 27.3949C57.7064 27.3949 58.5254 27.086 59.1126 26.4681C59.6998 25.8502 59.9933 25.0514 59.9933 24.0718V22.4441H56.5861V20.9295H61.8013V28.7287H59.9933V26.6263Z" fill="white"></path> <path d="M73.3816 26.8298H73.2889C73.1653 27.1161 73.0107 27.3949 72.8253 27.6662C72.6399 27.9224 72.4081 28.1485 72.13 28.3444C71.8673 28.5403 71.5505 28.6986 71.1796 28.8192C70.8088 28.9397 70.3761 29 69.8816 29C68.63 29 67.6256 28.6157 66.8684 27.8471C66.1112 27.0634 65.7326 25.9632 65.7326 24.5465V17.0638H67.5869V24.2301C67.5869 25.3001 67.8264 26.0988 68.3055 26.6263C68.7845 27.1387 69.4876 27.3949 70.4147 27.3949C70.7856 27.3949 71.1487 27.3497 71.5041 27.2593C71.8595 27.1689 72.1763 27.0332 72.4545 26.8524C72.7326 26.6715 72.9567 26.4455 73.1266 26.1742C73.2966 25.8879 73.3816 25.5488 73.3816 25.1569V17.0638H75.2359V28.7287H73.3816V26.8298Z" fill="white"></path> <path d="M88.9718 28.7287C88.2456 28.7287 87.7279 28.5479 87.4189 28.1862C87.1098 27.8245 86.9167 27.3723 86.8394 26.8298H86.7235C86.4608 27.508 86.0359 28.043 85.4487 28.4348C84.8769 28.8116 84.1043 29 83.1308 29C81.8791 29 80.8825 28.6835 80.1407 28.0505C79.399 27.4176 79.0282 26.551 79.0282 25.4508C79.0282 24.3657 79.4299 23.5293 80.2335 22.9415C81.0524 22.3537 82.3659 22.0598 84.1738 22.0598H86.7235V20.9069C86.7235 20.0479 86.4763 19.4074 85.9818 18.9854C85.4873 18.5483 84.7842 18.3298 83.8725 18.3298C83.069 18.3298 82.4123 18.488 81.9023 18.8045C81.3924 19.1059 80.9829 19.5204 80.6739 20.0479L79.4222 19.1436C79.5767 18.8422 79.7853 18.5483 80.048 18.262C80.3107 17.9756 80.6352 17.727 81.0215 17.516C81.4078 17.2899 81.8482 17.1166 82.3427 16.996C82.8372 16.8604 83.3858 16.7926 83.9884 16.7926C85.3946 16.7926 86.5072 17.1392 87.3261 17.8324C88.1606 18.5257 88.5778 19.4902 88.5778 20.7261V27.1463H90.2467V28.7287H88.9718ZM83.4553 27.4854C83.9343 27.4854 84.367 27.4326 84.7533 27.3271C85.1551 27.2066 85.5028 27.0559 85.7964 26.875C86.0899 26.6791 86.314 26.453 86.4685 26.1968C86.6385 25.9255 86.7235 25.6392 86.7235 25.3378V23.4162H84.1738C83.0613 23.4162 82.25 23.5669 81.7401 23.8684C81.2301 24.1698 80.9752 24.6068 80.9752 25.1795V25.6543C80.9752 26.2571 81.1915 26.7168 81.6242 27.0332C82.0723 27.3347 82.6827 27.4854 83.4553 27.4854Z" fill="white"></path> <path d="M93.1813 27.1915H96.6813V18.6011H93.1813V17.0638H98.5356V20.0027H98.6515C98.8987 19.0833 99.3623 18.3675 100.042 17.8551C100.738 17.3276 101.618 17.0638 102.685 17.0638H104.353V18.8723H102.105C101.039 18.8723 100.174 19.1738 99.5091 19.7766C98.8601 20.3794 98.5356 21.1707 98.5356 22.1503V27.1915H103.171V28.7287H93.1813V27.1915Z" fill="white"></path> <path d="M115.146 26.8298H115.053C114.28 28.2766 113.052 29 111.368 29C109.9 29 108.748 28.465 107.914 27.3949C107.095 26.3249 106.685 24.8254 106.685 22.8963C106.685 20.9672 107.095 19.4676 107.914 18.3976C108.748 17.3276 109.9 16.7926 111.368 16.7926C113.052 16.7926 114.28 17.516 115.053 18.9628H115.146V12H117V28.7287H115.146V26.8298ZM112.086 27.3949C112.503 27.3949 112.897 27.3422 113.268 27.2367C113.639 27.1312 113.964 26.9805 114.242 26.7846C114.52 26.5736 114.736 26.3249 114.891 26.0386C115.061 25.7371 115.146 25.3905 115.146 24.9987V20.7939C115.146 20.402 115.061 20.0629 114.891 19.7766C114.736 19.4752 114.52 19.2265 114.242 19.0306C113.964 18.8196 113.639 18.6613 113.268 18.5559C112.897 18.4504 112.503 18.3976 112.086 18.3976C111.004 18.3976 110.162 18.7216 109.56 19.3697C108.972 20.0027 108.679 20.8466 108.679 21.9016V23.891C108.679 24.9459 108.972 25.7974 109.56 26.4455C110.162 27.0785 111.004 27.3949 112.086 27.3949Z" fill="white"></path> <path fill-rule="evenodd" clip-rule="evenodd" d="M12.8976 1.19494C13.2262 2.12733 12.7379 3.14996 11.807 3.47903C6.98178 5.18478 3.57487 9.67684 3.57487 15.2797C3.57487 16.1627 3.66347 17.0232 3.83169 17.8532C4.02807 18.8222 3.403 19.7672 2.43556 19.9639C1.46812 20.1606 0.524651 19.5345 0.32827 18.5655C0.112808 17.5023 0 16.4033 0 15.2797C0 8.12702 4.3928 2.30293 10.6172 0.102553C11.5481 -0.226526 12.5691 0.262554 12.8976 1.19494Z" fill="#FF4700"></path> <path fill-rule="evenodd" clip-rule="evenodd" d="M16.1024 1.19494C15.7738 2.12733 16.2621 3.14996 17.193 3.47903C22.0182 5.18478 25.4251 9.67684 25.4251 15.2797C25.4251 16.1627 25.3365 17.0232 25.1683 17.8532C24.9719 18.8222 25.597 19.7672 26.5644 19.9639C27.5319 20.1606 28.4753 19.5345 28.6717 18.5655C28.8872 17.5023 29 16.4033 29 15.2797C29 8.12702 24.6072 2.30293 18.3828 0.102553C17.4519 -0.226526 16.4309 0.262554 16.1024 1.19494Z" fill="#FF4700"></path> <path fill-rule="evenodd" clip-rule="evenodd" d="M25.0228 22.441C24.3805 21.712 23.2689 21.6418 22.54 22.2841C18.7617 25.6135 13.2733 26.3894 8.46641 23.7058C7.70886 23.2828 7.01318 22.7945 6.38178 22.2524C5.64466 21.6195 4.53405 21.704 3.90117 22.4412C3.26828 23.1783 3.35278 24.2889 4.0899 24.9218C4.89864 25.6162 5.78742 26.2395 6.75137 26.7777C12.8879 30.2037 19.992 29.2186 24.866 24.9238C25.5949 24.2815 25.6651 23.1699 25.0228 22.441Z" fill="#FF4700"></path> </svg> 